<?xml version="1.0" standalone="no"?>
<!DOCTYPE svg PUBLIC "-//W3C//DTD SVG 20010904//EN"
 "http://www.w3.org/TR/2001/REC-SVG-20010904/DTD/svg10.dtd">
<svg version="1.0" xmlns="http://www.w3.org/2000/svg"
 width="260.000000pt" height="260.000000pt" viewBox="0 0 260.000000 260.000000"
 preserveAspectRatio="xMidYMid meet">
<metadata>
Created by potrace 1.14, written by Peter Selinger 2001-2017
</metadata>
<g transform="translate(0.000000,260.000000) scale(0.100000,-0.100000)"
fill="#000000" stroke="none">
<path d="M0 1300 l0 -1300 1300 0 1300 0 0 1300 0 1300 -1300 0 -1300 0 0
-1300z m570 415 l0 -315 130 0 130 0 0 315 0 315 120 0 120 0 0 -760 0 -760
-120 0 -120 0 0 320 0 320 -130 0 -130 0 0 -320 0 -320 -120 0 -120 0 0 760 0
760 120 0 120 0 0 -315z m953 268 c51 -173 212 -652 216 -647 3 3 56 159 116
347 l111 342 147 3 147 3 0 -761 0 -760 -115 0 -115 0 -2 502 -3 503 -113
-343 -114 -343 -61 3 -62 3 -13 40 c-8 22 -58 175 -112 340 l-99 300 0 -502
-1 -503 -120 0 -120 0 0 760 0 760 149 0 149 0 15 -47z"/>
</g>
</svg>
