<?xml version="1.0" encoding="UTF-8"?> <svg xmlns="http://www.w3.org/2000/svg" width="301" height="301" viewBox="0 0 301 301" fill="none"><path d="M150.596 289.932C227.702 289.932 290.209 227.543 290.209 150.583C290.209 73.622 227.702 11.2332 150.596 11.2332C73.4903 11.2332 10.9835 73.622 10.9835 150.583C10.9835 227.543 73.4903 289.932 150.596 289.932Z" fill="#201D1E"></path><path d="M30.9308 160.452V157.844H33.3929C34.314 157.844 34.5006 157.078 34.5006 156.156V146.178C33.6699 146.884 32.5622 147.314 30.994 147.53V144.766C33.1461 144.277 35.1147 142.988 35.6083 140.716H39.5424V156.156C39.5424 157.078 39.7892 157.844 40.7133 157.844H43.0791V160.452H30.9308Z" fill="#D6001C"></path><path d="M51.5131 160.761C48.6837 160.761 45.4931 159.379 45.4931 156.186C45.4842 155.847 45.5438 155.511 45.6686 155.196C45.7933 154.881 45.9805 154.595 46.2189 154.354C46.4573 154.113 46.742 153.923 47.0559 153.795C47.3699 153.666 47.7065 153.603 48.0456 153.608C49.5837 153.608 50.8148 154.374 50.8148 155.849C50.8368 156.277 50.6971 156.697 50.4233 157.026C50.1496 157.356 49.7618 157.57 49.3369 157.628C49.6379 158.304 50.3543 158.58 51.2151 158.58C53.9241 158.58 55.3358 155.05 55.3358 152.779C55.3307 152.235 55.2895 151.692 55.2124 151.153C54.2884 152.319 53.1837 152.995 51.182 152.995C47.4316 152.995 44.7256 150.324 44.7256 146.731C44.7256 142.402 48.3857 140.422 52.2295 140.422C57.8883 140.422 60.6575 144.904 60.6575 150.336C60.6455 156.585 57.0184 160.761 51.5131 160.761ZM52.2506 142.705C50.4055 142.705 49.7282 144.547 49.7282 146.112C49.7282 147.771 50.3302 150.471 52.4673 150.471C54.3124 150.471 55.08 148.783 55.08 147.167C55.083 145.409 54.4358 142.705 52.2506 142.705Z" fill="#D6001C"></path><path d="M252.136 160.761C251.222 160.822 250.31 160.607 249.52 160.145C248.813 159.779 246.937 158.55 245.736 158.55C244.535 158.55 244.231 159.319 243.985 160.332L243.954 160.455H241.218C241.155 159.472 241.062 158.49 241.062 157.508C241.05 156.633 241.213 155.764 241.541 154.952C241.868 154.14 242.354 153.402 242.97 152.779C244.138 151.613 245.706 150.976 247.308 150.108C248.909 149.24 250.658 147.744 250.658 145.719C250.658 143.877 249.276 142.618 247.461 142.618C245.893 142.618 244.969 143.294 244.785 144.676C246.2 144.676 247.091 145.412 247.091 146.884C247.091 148.236 245.86 149.065 244.382 149.065C242.275 149.065 241.182 147.377 241.182 145.412C241.182 143.447 242.66 141.882 244.382 141.083C245.643 140.5 246.874 140.407 248.256 140.407C251.886 140.407 256.04 142.128 256.04 146.331C256.04 152.472 243.611 151.613 243.611 157.045C243.606 157.281 243.617 157.517 243.644 157.751H243.81C244.331 155.972 245.041 154.837 247.284 154.837C249.526 154.837 251.344 156.615 252.702 156.615C254.7 156.615 255.221 155.356 255.621 153.761H256.223C256.253 154.56 256.283 155.356 256.283 156.165C256.286 158.703 254.842 160.761 252.136 160.761Z" fill="#D6001C"></path><path d="M258.7 160.455V157.844H261.16C262.084 157.844 262.267 157.078 262.267 156.156V146.178C261.437 146.884 260.329 147.314 258.761 147.53V144.766C260.913 144.277 262.881 142.988 263.375 140.716H267.312V156.156C267.312 157.078 267.559 157.844 268.48 157.844H270.849V160.455H258.7Z" fill="#D6001C"></path><path d="M254.929 204.775C252.584 205.323 250.439 206.513 248.735 208.211C247.03 209.909 245.835 212.049 245.282 214.388C244.729 212.048 243.533 209.909 241.828 208.21C240.123 206.512 237.977 205.322 235.632 204.775C237.983 204.232 240.134 203.042 241.84 201.339C243.546 199.636 244.739 197.489 245.282 195.143C245.832 197.486 247.026 199.629 248.73 201.331C250.435 203.032 252.582 204.225 254.929 204.775V204.775Z" fill="#D6001C"></path><path d="M65.5608 204.775C63.2154 205.322 61.0695 206.512 59.3647 208.21C57.6598 209.909 56.4637 212.048 55.9108 214.388C55.3581 212.049 54.1624 209.909 52.4581 208.211C50.7538 206.513 48.6086 205.323 46.2637 204.775C48.6147 204.233 50.7659 203.043 52.4717 201.34C54.1775 199.637 55.3692 197.489 55.9108 195.143C56.4607 197.486 57.6555 199.629 59.3606 201.331C61.0656 203.033 63.2131 204.226 65.5608 204.775V204.775Z" fill="#D6001C"></path><path d="M73.4019 103.162L63.7006 97.6795L61.4582 101.633L71.1564 107.119L68.9139 111.073L46.7212 98.5267L48.9667 94.573L57.8101 99.5722L60.0555 95.6185L51.2121 90.6163L53.4546 86.6627L75.6443 99.2087L73.4019 103.162Z" fill="white"></path><path d="M82.8442 85.0884L79.163 89.2043L81.27 92.0254L78.0884 95.5735L62.7374 74.5432L66.4066 70.4514L89.0478 83.3699L85.8633 86.9211L82.8442 85.0884ZM79.3225 83.0154L70.8373 77.9081L70.0879 77.3853L70.6898 78.0703L76.6707 85.9567L79.3225 83.0154Z" fill="white"></path><path d="M99.9139 75.1081L91.9886 68.5767L90.2759 69.8114L96.1063 77.857L92.407 80.5158L77.4563 59.8882L85.3997 54.1559C87.2599 52.813 89.4452 53.1645 90.7696 54.9911L95.417 61.3903C96.5066 62.8925 96.4916 64.6109 95.3899 65.9449L103.785 72.314L99.9139 75.1081ZM87.8198 66.4256L91.3926 63.8448C91.4095 63.835 91.424 63.8216 91.4351 63.8056C91.4462 63.7895 91.4536 63.7712 91.4567 63.752C91.4599 63.7328 91.4588 63.7131 91.4534 63.6943C91.448 63.6756 91.4386 63.6582 91.4257 63.6436L87.3893 58.0735C87.3792 58.0566 87.3655 58.0421 87.3491 58.031C87.3328 58.02 87.3142 58.0126 87.2947 58.0095C87.2752 58.0063 87.2552 58.0075 87.2362 58.0128C87.2172 58.0182 87.1996 58.0276 87.1846 58.0405L83.6118 60.6212L87.8198 66.4256Z" fill="white"></path><path d="M116.839 66.05L110.485 57.9834L108.55 58.8276L112.532 67.9247L108.36 69.7513L98.1471 46.4258L107.126 42.5202C109.233 41.6039 111.292 42.409 112.198 44.476L115.364 51.7074C116.108 53.4048 115.728 55.0782 114.365 56.1478L121.213 64.1423L116.839 66.05ZM106.87 55.0001L110.909 53.2396C110.928 53.2337 110.946 53.2236 110.96 53.2101C110.975 53.1966 110.986 53.18 110.993 53.1615C111.001 53.143 111.004 53.1232 111.002 53.1034C111.001 53.0837 110.995 53.0645 110.985 53.0473L108.228 46.7382C108.222 46.7197 108.212 46.7028 108.198 46.6886C108.185 46.6744 108.169 46.6634 108.15 46.6562C108.132 46.649 108.113 46.6459 108.093 46.6471C108.074 46.6483 108.055 46.6538 108.038 46.6631L103.995 48.4237L106.87 55.0001Z" fill="white"></path><path d="M132.747 51.2958L134.716 60.9156L130.255 61.8259L128.286 52.2061L119.831 37.9716L124.65 36.9892L129.34 46.2756L129.49 46.6511L129.481 46.2455L130.182 35.8596L135.002 34.8772L132.747 51.2958Z" fill="white"></path><path d="M167.967 61.1019L170.047 46.558L169.845 47.1919L164.217 60.5671L162.627 60.3418L161.008 45.9331L160.993 45.2691L158.913 59.813L154.548 59.1911L158.151 33.9909L163.455 34.745L165.023 49.2588L170.631 35.7694L175.935 36.5235L172.332 61.7238L167.967 61.1019Z" fill="white"></path><path d="M186.055 39.6136L177.756 63.6838L182.062 65.163L190.361 41.0927L186.055 39.6136Z" fill="white"></path><path d="M187.616 67.2998L199.5 44.7794L203.527 46.8975L193.6 65.7195L200.048 69.1084L198.094 72.8067L187.616 67.2998Z" fill="white"></path><path d="M202.128 75.5316L217.96 55.5769L221.53 58.398L208.298 75.075L214.011 79.5905L211.407 82.8682L202.128 75.5316Z" fill="white"></path><path d="M214.869 86.2751L234.118 69.5801L241.884 78.4999L238.72 81.2429L233.94 75.754L229.377 79.7137L232.962 83.8296L229.937 86.4524L226.352 82.3364L221.015 86.9631L225.795 92.452L222.635 95.1949L214.869 86.2751Z" fill="white"></path><path d="M230.127 107.275L237.507 100.137L236.466 98.3014L227.812 103.192L225.566 99.2388L247.759 86.6957L252.575 95.2069C253.707 97.1988 253.117 99.3289 251.151 100.44L244.271 104.331C242.654 105.232 240.96 105.04 239.74 103.799L232.468 111.421L230.127 107.275ZM240.111 96.2404L242.284 100.071C242.292 100.089 242.304 100.105 242.319 100.118C242.334 100.131 242.351 100.14 242.37 100.145C242.389 100.15 242.409 100.151 242.429 100.148C242.448 100.144 242.467 100.137 242.483 100.125L248.475 96.7392C248.493 96.7308 248.509 96.7187 248.521 96.7038C248.534 96.6888 248.543 96.6713 248.548 96.6525C248.554 96.6336 248.555 96.6139 248.551 96.5946C248.548 96.5754 248.541 96.557 248.53 96.5409L246.356 92.7134L240.111 96.2404Z" fill="white"></path><path d="M71.3581 238.014L67.0297 233.901C65.4193 232.372 65.3652 230.11 66.9213 228.494L79.2623 215.533C79.5991 215.152 80.011 214.845 80.4722 214.631C80.9333 214.417 81.4339 214.3 81.9425 214.287C82.451 214.275 82.9567 214.367 83.4278 214.559C83.8989 214.751 84.3253 215.037 84.6803 215.401L89.0087 219.514C90.6432 221.067 90.7003 223.329 89.1683 224.922L86.4292 227.791L83.1182 224.657L85.4539 222.209C85.4691 222.196 85.4813 222.18 85.4897 222.162C85.4981 222.144 85.5024 222.125 85.5024 222.105C85.5024 222.085 85.4981 222.066 85.4897 222.048C85.4813 222.03 85.4691 222.014 85.4539 222.001L82.3657 219.069C82.2874 218.994 82.2362 218.994 82.161 219.069L70.5574 231.237C70.5423 231.249 70.5301 231.265 70.5217 231.282C70.5134 231.3 70.509 231.319 70.509 231.339C70.509 231.358 70.5134 231.378 70.5217 231.395C70.5301 231.413 70.5423 231.429 70.5574 231.441L73.6457 234.376C73.6741 234.401 73.7104 234.414 73.748 234.414C73.7856 234.414 73.8219 234.401 73.8504 234.376L76.2132 231.901L79.5242 235.034L76.8152 237.879C75.25 239.511 72.9925 239.568 71.3581 238.014Z" fill="white"></path><path d="M90.3843 252.063L85.3245 248.89C83.4101 247.688 82.9165 245.537 84.1385 243.596L93.6923 228.416C94.8963 226.508 97.0514 226.012 98.9658 227.214L104.026 230.386C105.967 231.588 106.461 233.76 105.26 235.671L95.718 250.861C94.4869 252.799 92.3257 253.291 90.3843 252.063ZM101.049 233.544L97.4367 231.282C97.3434 231.222 97.2922 231.234 97.235 231.327L88.2833 245.552C88.2709 245.568 88.2621 245.586 88.2577 245.605C88.2532 245.624 88.2531 245.644 88.2575 245.664C88.2618 245.683 88.2704 245.701 88.2827 245.717C88.295 245.732 88.3106 245.745 88.3284 245.754L91.9404 248.016C91.9739 248.033 92.0126 248.039 92.0496 248.03C92.0865 248.022 92.1193 248.001 92.1421 247.971L101.094 233.745C101.104 233.73 101.111 233.713 101.114 233.694C101.118 233.676 101.117 233.657 101.113 233.639C101.109 233.621 101.101 233.604 101.09 233.589C101.079 233.575 101.065 233.562 101.049 233.553V233.544Z" fill="white"></path><path d="M115.777 263.287L120.656 249.428L120.334 250.008L112.201 262.034L110.69 261.502L111.915 247.054L112.029 246.402L107.15 260.261L102.99 258.801L111.445 234.788L116.496 236.56L115.202 251.098L123.338 238.958L128.389 240.73L119.933 264.747L115.777 263.287Z" fill="white"></path><path d="M141.019 258.107L135.808 257.506L134.646 267.367L130.131 266.838L133.099 241.547L142.834 242.689C145.112 242.957 146.485 244.69 146.223 246.931L145.299 254.766C145.037 257.005 143.333 258.372 141.019 258.107ZM141.512 246.742L137.133 246.228L136.296 253.342L140.675 253.865C140.695 253.869 140.715 253.869 140.734 253.864C140.753 253.86 140.771 253.851 140.786 253.838C140.801 253.826 140.813 253.81 140.822 253.793C140.83 253.775 140.835 253.756 140.835 253.736L141.639 246.91C141.645 246.891 141.646 246.87 141.643 246.849C141.639 246.829 141.631 246.81 141.619 246.794C141.606 246.777 141.59 246.764 141.572 246.755C141.553 246.746 141.533 246.741 141.512 246.742V246.742Z" fill="white"></path><path d="M161.312 264.491L155.786 264.867L155.331 268.361L150.569 268.686L154.284 242.917L159.771 242.542L166.962 267.568L162.2 267.892L161.312 264.491ZM160.237 260.553L157.724 250.993L157.552 250.092L157.504 250.993L156.279 260.808L160.237 260.553Z" fill="white"></path><path d="M184.919 263.38L176.193 250.515L175.953 250.053L180.04 264.732L175.724 265.931L168.891 241.406L173.56 240.111L181.127 251.525L181.38 252.021L177.737 238.952L182.054 237.753L188.887 262.277L184.919 263.38Z" fill="white"></path><path d="M191.113 233.689L186.971 235.579L197.574 258.727L201.716 256.837L191.113 233.689Z" fill="white"></path><path d="M209.86 252.651L196.029 231.267L205.977 224.855L208.25 228.368L202.128 232.312L205.408 237.386L209.999 234.427L212.172 237.789L207.582 240.745L211.416 246.673L217.539 242.728L219.808 246.243L209.86 252.651Z" fill="white"></path><path d="M228.056 228.71L217.704 228.509C216.989 228.515 216.281 228.37 215.626 228.083C214.971 227.796 214.385 227.374 213.906 226.844L212.045 224.898C210.489 223.263 210.516 221.079 212.181 219.49L216.506 215.377C218.171 213.8 220.383 213.854 221.942 215.488L224.678 218.357L221.367 221.491L219.032 219.042C219.02 219.027 219.004 219.014 218.986 219.005C218.969 218.997 218.949 218.992 218.929 218.992C218.91 218.992 218.89 218.997 218.872 219.005C218.855 219.014 218.839 219.027 218.827 219.042L215.739 221.974C215.66 222.052 215.66 222.104 215.739 222.182L217.469 223.999C217.51 224.046 217.561 224.083 217.619 224.106C217.676 224.13 217.739 224.14 217.801 224.134L228.155 224.339C228.869 224.34 229.574 224.489 230.228 224.775C230.881 225.061 231.469 225.478 231.954 226L234.316 228.476C235.897 230.137 235.843 232.348 234.181 233.926L229.853 238.038C228.191 239.616 226.003 239.541 224.435 237.879L221.696 235.007L225.007 231.874L227.369 234.349C227.382 234.364 227.397 234.376 227.415 234.385C227.433 234.393 227.452 234.397 227.472 234.397C227.491 234.397 227.511 234.393 227.528 234.385C227.546 234.376 227.562 234.364 227.574 234.349L230.662 231.414C230.687 231.386 230.7 231.349 230.7 231.312C230.7 231.274 230.687 231.238 230.662 231.21L228.405 228.839C228.307 228.758 228.183 228.712 228.056 228.71V228.71Z" fill="white"></path><path d="M112.902 114.765H101.025L85.5111 124.98L91.1398 134.642L100.534 128.285V153.157H88.0485V163.639H124.771V153.148H112.902V114.765ZM157.167 114.08H141.789C133.551 114.08 129.295 118.19 129.295 126.209V152.178C129.295 160.193 133.551 164.303 141.789 164.303H157.167C165.406 164.303 169.662 160.193 169.662 152.178V126.221C169.662 118.202 165.406 114.092 157.167 114.092V114.08ZM157.303 150.216C157.303 152.89 156.342 153.848 153.459 153.848H145.497C142.614 153.848 141.651 152.89 141.651 150.216V128.206C141.651 125.466 142.614 124.577 145.497 124.577H153.459C156.342 124.577 157.303 125.479 157.303 128.206V150.216ZM203.19 114.092H187.824C179.586 114.092 175.329 118.202 175.329 126.221V152.19C175.329 160.205 179.586 164.315 187.824 164.315H203.202C211.44 164.315 215.697 160.205 215.697 152.19V126.221C215.685 118.202 211.428 114.092 203.19 114.092ZM203.326 150.216C203.326 152.89 202.365 153.848 199.482 153.848H191.52C188.637 153.848 187.674 152.89 187.674 150.216V128.206C187.674 125.466 188.637 124.577 191.52 124.577H199.482C202.365 124.577 203.326 125.479 203.326 128.206V150.216Z" fill="white"></path><path d="M116.893 193.583H130.809V189.377H121.842V185.667H129.653V181.461H121.842V178.213H130.809V174.007H116.893V193.583ZM97.2019 181.533L93.1866 174.022H87.6873L94.7006 186.923V193.593H99.6761V186.923L106.689 174.022H101.19L97.2019 181.533ZM146.704 174.022L140.516 193.593H145.576L146.843 189.386H153.766L155.03 193.593H160.132L153.946 174.022H146.704ZM148.134 185.165L150.334 177.919L152.508 185.165H148.134ZM208.831 181.861L204.316 181.2C202.582 180.953 202.308 180.788 202.308 179.857V179.418C202.308 178.346 202.72 177.961 203.903 177.961H206.956C208.081 177.961 208.461 178.319 208.461 179.418V179.58L213.409 178.979C213.439 178.844 213.448 178.706 213.436 178.568C213.436 175.386 211.757 173.737 208.458 173.737H202.368C199.057 173.737 197.363 175.386 197.363 178.598V181.161C197.363 183.961 198.684 185.168 202.094 185.667L206.576 186.325C208.226 186.571 208.557 186.791 208.557 187.698V188.218C208.557 189.29 208.172 189.672 207.052 189.672H203.777C202.621 189.672 202.236 189.29 202.236 188.218V188.025L197.315 188.626C197.282 188.752 197.273 188.882 197.287 189.011C197.287 192.223 198.991 193.869 202.293 193.869H208.536C211.847 193.869 213.511 192.223 213.511 189.011V186.403C213.505 183.537 212.268 182.329 208.831 181.837V181.861ZM185.955 181.834V178.895C185.955 175.684 184.278 174.037 180.949 174.037H170.315V193.608H175.266V186.641H177.521L182.307 193.583H188.083L183.131 186.337C185.028 185.733 185.964 184.225 185.964 181.81L185.955 181.834ZM181.003 181.037C181.003 182.107 180.621 182.465 179.465 182.465H175.251V178.213H179.465C180.621 178.213 181.003 178.568 181.003 179.667V181.037Z" fill="white"></path><path d="M280.782 173.031C279.606 172.367 278.271 172.034 276.92 172.066C274.241 172.066 272.826 173.118 271.686 173.965C270.743 174.665 270.123 175.128 268.676 175.128C267.228 175.128 266.614 174.665 265.666 173.965C264.525 173.118 263.11 172.066 260.431 172.066C257.752 172.066 256.338 173.118 255.197 173.965C254.255 174.665 253.635 175.128 252.187 175.128C250.739 175.128 250.122 174.665 249.177 173.965C248.039 173.118 246.621 172.066 243.942 172.066C241.264 172.066 239.849 173.118 238.711 173.965C237.769 174.665 237.146 175.128 235.701 175.128C235.119 175.146 234.541 175.037 234.006 174.806V178.688C234.564 178.799 235.132 178.853 235.701 178.85C238.38 178.85 239.795 177.796 240.935 176.949C241.875 176.249 242.498 175.786 243.945 175.786C245.393 175.786 246.01 176.249 246.955 176.949C248.093 177.796 249.511 178.85 252.19 178.85C254.869 178.85 256.283 177.796 257.421 176.949C258.363 176.249 258.986 175.786 260.431 175.786C261.876 175.786 262.496 176.249 263.441 176.949C264.579 177.796 265.997 178.85 268.673 178.85C271.348 178.85 272.769 177.796 273.907 176.949C274.849 176.249 275.472 175.786 276.917 175.786C278.362 175.786 278.982 176.249 279.927 176.949C280.201 177.144 280.782 173.031 280.782 173.031Z" fill="white"></path><path d="M280.782 173.031L280.818 172.965C279.631 172.294 278.284 171.957 276.92 171.991C274.211 171.991 272.778 173.058 271.64 173.905C270.695 174.605 270.105 175.05 268.679 175.053C267.252 175.056 266.665 174.605 265.72 173.905C264.582 173.058 263.137 171.988 260.44 171.991C257.743 171.994 256.298 173.058 255.161 173.905C254.216 174.605 253.626 175.05 252.202 175.053C250.778 175.056 250.185 174.605 249.24 173.905C248.102 173.058 246.657 171.988 243.96 171.991C241.264 171.994 239.834 173.049 238.693 173.905C237.748 174.605 237.155 175.05 235.731 175.053C235.162 175.077 234.594 174.975 234.07 174.752L233.961 174.707V178.757H234.021C234.585 178.866 235.157 178.921 235.731 178.919C238.44 178.919 239.873 177.85 241.008 177.006C241.956 176.303 242.546 175.858 243.97 175.855C245.393 175.852 245.986 176.303 246.931 177.006C248.069 177.85 249.511 178.919 252.211 178.919C254.911 178.919 256.35 177.85 257.487 177.006C258.433 176.303 259.026 175.858 260.449 175.855C261.873 175.852 262.466 176.303 263.411 177.006C264.549 177.85 265.991 178.919 268.688 178.919C271.385 178.919 272.829 177.85 273.967 177.006C274.912 176.303 275.505 175.858 276.929 175.855C278.353 175.852 278.946 176.303 279.891 177.006L279.954 177.027C279.982 177.026 280.009 177.015 280.029 176.997C280.061 176.966 280.087 176.929 280.105 176.888C280.212 176.608 280.293 176.319 280.345 176.023C280.595 174.857 280.854 173.037 280.854 173.037V172.986L280.809 172.959L280.773 173.025H280.698C280.698 173.025 280.664 173.268 280.607 173.626C280.523 174.176 280.391 175.002 280.255 175.69C280.186 176.035 280.117 176.345 280.053 176.564C280.029 176.651 279.999 176.736 279.963 176.819C279.956 176.839 279.945 176.858 279.93 176.873L279.951 176.903V176.867H279.93L279.951 176.897L279.978 176.861H279.951V176.903L279.978 176.867C279.039 176.17 278.386 175.69 276.926 175.69C275.466 175.69 274.819 176.17 273.874 176.867C272.736 177.715 271.342 178.751 268.685 178.754C266.027 178.757 264.636 177.715 263.498 176.867C262.559 176.17 261.906 175.69 260.446 175.69C258.986 175.69 258.339 176.17 257.394 176.867C256.256 177.715 254.863 178.751 252.208 178.754C249.553 178.757 248.156 177.715 247.019 176.867C246.08 176.17 245.426 175.69 243.967 175.69C242.507 175.69 241.86 176.17 240.917 176.867C239.777 177.715 238.386 178.751 235.728 178.754C235.164 178.756 234.602 178.703 234.049 178.595L234.034 178.667H234.109V174.806H234.034L234.003 174.876C234.547 175.111 235.136 175.222 235.728 175.203C237.188 175.203 237.835 174.725 238.78 174.025C239.918 173.181 241.309 172.142 243.967 172.142C246.624 172.142 248.015 173.181 249.156 174.025C250.092 174.725 250.748 175.206 252.208 175.203C253.668 175.2 254.315 174.725 255.257 174.025C256.398 173.181 257.788 172.142 260.446 172.142C263.104 172.142 264.495 173.181 265.636 174.025C266.572 174.725 267.225 175.206 268.685 175.203C270.144 175.2 270.792 174.725 271.737 174.025C272.878 173.181 274.268 172.142 276.926 172.142C278.26 172.11 279.578 172.44 280.74 173.097L280.776 173.031H280.701H280.782Z" fill="white"></path><path d="M67.138 173.031C65.9653 172.369 64.6351 172.036 63.2883 172.067C60.6094 172.067 59.1947 173.118 58.0539 173.965C57.1117 174.665 56.4917 175.128 55.0439 175.128C53.5961 175.128 52.979 174.665 52.0339 173.965C50.8931 173.118 49.4784 172.067 46.7995 172.067C44.1206 172.067 42.7059 173.118 41.5651 173.965C40.623 174.665 40.0029 175.128 38.5551 175.128C37.1073 175.128 36.4902 174.665 35.5451 173.965C34.4043 173.118 32.9896 172.067 30.3107 172.067C27.6318 172.067 26.2171 173.118 25.0793 173.965C24.5749 174.394 23.998 174.73 23.3757 174.957C23.0145 175.068 23.1048 178.805 23.5532 178.73C25.3111 178.43 26.3977 177.625 27.3037 176.949C28.2097 176.273 28.8689 175.786 30.3137 175.786C31.7585 175.786 32.3786 176.249 33.3237 176.949C34.4615 177.796 35.8792 178.85 38.5581 178.85C41.237 178.85 42.6517 177.796 43.7895 176.949C44.7316 176.249 45.3547 175.786 46.7995 175.786C48.2443 175.786 48.8643 176.249 49.8095 176.949C50.9473 177.796 52.365 178.85 55.0409 178.85C57.7167 178.85 59.1375 177.796 60.2752 176.949C61.2174 176.249 61.8404 175.786 63.2852 175.786C64.73 175.786 65.3501 176.249 66.2952 176.949C66.5571 177.144 66.834 177.348 67.138 177.549V173.031Z" fill="white"></path><path d="M67.1381 173.031L67.1742 172.965C65.9908 172.296 64.6479 171.959 63.2883 171.991C60.5793 171.991 59.1465 173.058 58.0087 173.905C57.0636 174.605 56.4736 175.05 55.0469 175.053C53.6202 175.056 53.0332 174.605 52.0881 173.905C50.9503 173.058 49.5055 171.988 46.8085 171.991C44.1116 171.994 42.6668 173.049 41.538 173.905C40.5929 174.605 40.0029 175.05 38.5792 175.053C37.1555 175.056 36.5625 174.605 35.6174 173.905C34.4796 173.058 33.0348 171.988 30.3378 171.991C27.6409 171.994 26.187 173.049 25.0523 173.905C24.5538 174.327 23.9854 174.658 23.3727 174.885C23.3529 174.89 23.3345 174.9 23.3185 174.913C23.3025 174.926 23.2892 174.942 23.2794 174.96C23.1931 175.138 23.1449 175.333 23.1379 175.531C23.107 175.837 23.0929 176.145 23.0958 176.453C23.093 176.969 23.1262 177.485 23.1951 177.997C23.2187 178.185 23.26 178.37 23.3185 178.55C23.3399 178.611 23.3703 178.669 23.4088 178.721C23.425 178.746 23.4468 178.766 23.4724 178.781C23.498 178.795 23.5268 178.804 23.5563 178.805H23.5834C25.3593 178.505 26.4609 177.685 27.3669 177.003C28.273 176.321 28.9051 175.855 30.3288 175.852C31.7525 175.849 32.3455 176.3 33.2906 177.003C34.4284 177.847 35.8702 178.916 38.5702 178.916C41.2701 178.916 42.7089 177.847 43.8467 177.003C44.7918 176.3 45.3818 175.855 46.8085 175.852C48.2353 175.849 48.8252 176.3 49.7704 177.003C50.9082 177.847 52.3499 178.916 55.0469 178.916C57.7439 178.916 59.1887 177.847 60.3264 177.003C61.2716 176.3 61.8615 175.855 63.2883 175.852C64.715 175.849 65.305 176.3 66.2501 177.003C66.512 177.195 66.7919 177.402 67.0959 177.603L67.2133 177.682V172.989L67.1742 172.965L67.1381 173.031H67.0628V177.537H67.1381L67.1802 177.477C66.8792 177.276 66.6023 177.072 66.3404 176.876C65.4013 176.179 64.7481 175.699 63.2883 175.699C61.8284 175.699 61.1813 176.179 60.2361 176.876C59.0953 177.724 57.7047 178.76 55.0469 178.763C52.3891 178.766 50.9984 177.724 49.8607 176.876C48.9215 176.179 48.2684 175.699 46.8085 175.699C45.3487 175.699 44.7015 176.179 43.7564 176.876C42.6156 177.724 41.225 178.76 38.5702 178.763C35.9153 178.766 34.5187 177.724 33.3809 176.876C32.4418 176.179 31.7886 175.699 30.3288 175.699C28.8689 175.699 28.2218 176.179 27.2766 176.876C26.3315 177.573 25.2991 178.349 23.5563 178.643V178.718V178.643C23.4982 178.579 23.4587 178.5 23.4419 178.415C23.2996 177.768 23.2359 177.106 23.2523 176.444C23.2489 176.107 23.267 175.769 23.3065 175.434C23.318 175.326 23.3402 175.22 23.3727 175.116C23.3806 175.087 23.3928 175.06 23.4088 175.035C24.0401 174.807 24.6253 174.468 25.1365 174.034C26.2743 173.19 27.6649 172.151 30.3228 172.151C32.9806 172.151 34.3712 173.19 35.512 174.034C36.4481 174.734 37.1043 175.215 38.5641 175.212C40.024 175.209 40.6711 174.734 41.6133 174.034C42.7541 173.19 44.1447 172.151 46.8025 172.151C49.4603 172.151 50.851 173.19 51.9917 174.034C52.9279 174.734 53.581 175.215 55.0409 175.212C56.5007 175.209 57.1479 174.734 58.093 174.034C59.2338 173.19 60.6244 172.151 63.2823 172.151C64.6167 172.119 65.9347 172.449 67.0959 173.106L67.1321 173.04L67.1381 173.031Z" fill="white"></path><path d="M283.596 150.601L283.629 150.282H283.593C283.513 115.129 269.467 81.4425 244.535 56.6129C219.603 31.7833 185.822 17.8382 150.602 17.8367V17.8367C133.137 17.8359 115.842 21.2688 99.7055 27.9393C83.5691 34.6099 68.907 44.3875 56.5566 56.7139C44.2061 69.0402 34.409 83.674 27.7247 99.7795C21.0404 115.885 17.5999 133.147 17.5995 150.58V150.58C17.5979 185.78 31.6039 219.54 56.5374 244.435C81.4709 269.33 115.29 283.321 150.557 283.332H150.605C185.825 283.329 219.606 269.383 244.537 244.553C269.469 219.723 283.514 186.036 283.593 150.883V150.883L283.596 150.601ZM150.596 279.426C133.644 279.426 116.858 276.094 101.197 269.619C85.5354 263.144 71.305 253.654 59.3183 241.689C47.3317 229.725 37.8235 215.521 31.3367 199.889C24.85 184.257 21.5117 167.503 21.5125 150.583C21.5107 143.414 22.1036 136.257 23.2854 129.186H67.5083V125.28H24.0018C29.8824 96.0928 45.7054 69.8374 68.7827 50.9746C91.86 32.1117 120.768 21.8048 150.596 21.8048C180.424 21.8048 209.333 32.1117 232.41 50.9746C255.487 69.8374 271.31 96.0928 277.191 125.28H233.621V129.186H277.907C281.021 147.659 280.062 166.587 275.098 184.652C270.133 202.717 261.283 219.485 249.163 233.787C237.042 248.089 221.944 259.582 204.919 267.465C187.894 275.348 169.352 279.432 150.584 279.432L150.596 279.426Z" fill="white"></path></svg> 