<?xml version="1.0" encoding="UTF-8"?> <svg xmlns="http://www.w3.org/2000/svg" width="1000" height="228" viewBox="0 0 1000 228" fill="none"><path d="M680.38 79.87L692.88 121.61H667.74L680.38 79.87ZM659.52 57.42L624 170.14H653L660.31 146H700.15L707.42 170.19H736.67L701.1 57.42H659.52Z" fill="white"></path><path d="M436.05 133.61H459.15C472.15 133.61 478.99 126.89 478.99 114.18V75.28C478.99 62.57 472.13 55.85 459.15 55.85H436.05C423.05 55.85 416.22 62.57 416.22 75.28V114.18C416.22 126.89 423.08 133.61 436.05 133.61V133.61ZM437.21 79.93C437.21 76.57 438.07 75.75 441.6 75.75H453.6C457.12 75.75 457.98 76.57 457.98 79.93V109.53C457.98 112.85 457.08 113.71 453.6 113.71H441.6C438.11 113.71 437.21 112.85 437.21 109.53V79.93Z" fill="white"></path><path d="M479.18 145.96H416.16V170.15H479.18V145.96Z" fill="white"></path><path d="M208.26 55.84H172.69C153.69 55.84 144.08 65.33 144.08 83.84V143.76C144.08 162.26 153.72 171.76 172.69 171.76H208.26C227.26 171.76 236.88 162.28 236.88 143.76V83.82C236.88 65.33 227.23 55.82 208.26 55.82V55.84ZM208.42 139.14C208.42 145.3 206.21 147.52 199.73 147.52H181.23C174.75 147.52 172.54 145.3 172.54 139.14V88.41C172.54 82.08 174.75 80.03 181.23 80.03H199.73C206.21 80.03 208.42 82.03 208.42 88.41V139.14Z" fill="white"></path><path d="M282.58 57.42H254.12V170.14H282.58V57.42Z" fill="white"></path><path d="M368.26 123.03L327.79 57.42H300.28V170.14H328.74V104.53L369.05 170.14H396.72V57.42H368.26V123.03Z" fill="white"></path><path d="M556.05 120.16L525.39 57.42H497.88V170.14H526.33V112.77L555.98 171.72L585.62 112.92V170.14H614.08V57.42H586.57L556.05 120.16Z" fill="white"></path><path d="M727.85 81.61H759.95V170.14H788.4V81.61H820.49V57.42H727.85V81.61Z" fill="white"></path><path d="M858.65 57.42H830.19V170.14H858.65V57.42Z" fill="white"></path><path d="M128.77 93.87V83.67C128.77 65.33 119.13 55.84 100.16 55.84H64.61C45.61 55.84 36 65.33 36 83.84V143.76C36 162.26 45.64 171.76 64.61 171.76H100.19C119.19 171.76 128.85 162.28 128.8 143.76V133.76H100.31V140.5C100 145.7 97.66 147.61 91.65 147.61H73.15C66.67 147.61 64.46 145.39 64.46 139.23V88.41C64.46 82.09 66.67 80.03 73.15 80.03H91.65C97.65 80.03 100 81.81 100.31 87.11V93.87H128.77Z" fill="white"></path><path d="M935.5 133.69V140.43C935.2 145.63 932.86 147.54 926.85 147.54H908.35C901.87 147.54 899.66 145.32 899.66 139.16V88.41C899.66 82.09 901.87 80.03 908.35 80.03H926.85C932.85 80.03 935.2 81.81 935.5 87.11V93.87H964V83.67C964 65.33 954.36 55.84 935.39 55.84H899.81C880.81 55.84 871.2 65.33 871.2 83.84V143.76C871.2 162.26 880.84 171.76 899.81 171.76H935.39C954.39 171.76 964.05 162.28 964 143.76V133.76L935.5 133.69Z" fill="white"></path></svg> 