<?xml version="1.0" encoding="UTF-8"?> <svg xmlns="http://www.w3.org/2000/svg" width="1000" height="228" viewBox="0 0 1000 228" fill="none"><path d="M290.75 159.903L295.53 175.881H285.91L290.75 159.903ZM282.75 151.324L269.14 194.396H280.27L283.05 185.148H298.29L301.08 194.396H312.27L298.66 151.324H282.75Z" fill="white"></path><path d="M360.18 162.02V168.771C360.18 175.841 356.5 179.466 349.24 179.466H336.84V194.446H326V151.324H349.29C356.55 151.324 360.23 154.949 360.23 162.02H360.18ZM349.3 163.777C349.3 161.361 348.45 160.582 345.97 160.582H336.84V170.179H346C348.48 170.179 349.33 169.34 349.33 166.983L349.3 163.777Z" fill="white"></path><path d="M408.25 162.02V168.771C408.25 175.841 404.56 179.466 397.3 179.466H384.9V194.446H374V151.324H397.3C404.56 151.324 408.25 154.949 408.25 162.02ZM397.36 163.777C397.36 161.361 396.52 160.582 394.04 160.582H384.9V170.179H394C396.48 170.179 397.32 169.34 397.32 166.983L397.36 163.777Z" fill="white"></path><path d="M452.02 185.148V194.396H422.08V151.324H432.97V185.148H452.02Z" fill="white"></path><path d="M476.57 151.324H465.68V194.386H476.57V151.324Z" fill="white"></path><path d="M519.29 185.148H504.05L501.27 194.396H490.14L503.75 151.324H519.65L533.26 194.396H522.07L519.29 185.148ZM516.51 175.851L511.73 159.873L506.89 175.851H516.51Z" fill="white"></path><path d="M583.76 151.324V194.396H573.18L557.75 169.33V194.396H546.87V151.324H557.39L572.88 176.39V151.324H583.76Z" fill="white"></path><path d="M598.56 184.309V161.411C598.56 154.35 602.25 150.725 609.56 150.725H623.17C630.42 150.725 634.11 154.35 634.11 161.351C634.13 161.655 634.11 161.96 634.05 162.259L623.23 163.528V163.168C623.23 160.751 622.38 159.963 619.9 159.963H612.82C610.35 159.963 609.5 160.751 609.5 163.168V182.552C609.5 184.909 610.35 185.757 612.82 185.757H619.9C622.38 185.757 623.23 184.909 623.23 182.552V182.132L634 183.461C634.06 183.739 634.081 184.025 634.06 184.309C634.06 191.37 630.37 194.995 623.12 194.995H609.51C602.25 194.995 598.51 191.37 598.51 184.309" fill="white"></path><path d="M659.33 160.572V167.752H676.5V176.999H659.33V185.148H679.04V194.396H648.44V151.324H679.04V160.572H659.33Z" fill="white"></path><path d="M692.57 184.309C692.538 184.025 692.558 183.737 692.63 183.461L703.45 182.132V182.552C703.45 184.909 704.3 185.757 706.84 185.757H714C716.48 185.757 717.33 184.909 717.33 182.552V181.403C717.33 179.406 716.6 178.927 712.97 178.407L703.11 176.959C695.61 175.871 692.71 173.214 692.71 167.053V161.43C692.71 154.37 696.46 150.745 703.71 150.745H717.07C724.33 150.745 728.07 154.37 728.07 161.371C728.096 161.675 728.076 161.981 728.01 162.279L717.18 163.548V163.188C717.18 160.771 716.34 159.982 713.86 159.982H707.14C704.54 159.982 703.63 160.831 703.63 163.188V164.187C703.63 166.184 704.24 166.593 708.05 167.183L717.97 168.631C725.53 169.719 728.25 172.376 728.25 178.617V184.359C728.25 191.42 724.56 195.045 717.31 195.045H703.58C696.32 195.045 692.58 191.42 692.58 184.359" fill="white"></path><path d="M111.46 36.1409V125.02H88.99V89.6082H59.03V125.02H36.57V36.1409H59.03V70.4143H88.99V36.1409H111.46Z" fill="white"></path><path d="M182.34 105.946H150.88L145.14 125.01H122.14L150.22 36.1309H183.05L211.13 125.01H188.08L182.34 105.946ZM176.6 86.7421L166.74 53.8368L156.74 86.792L176.6 86.7421Z" fill="white"></path><path d="M254.61 93.4829H244.37V125.01H221.9V36.1309H270.21C285.31 36.1309 292.93 43.6107 292.93 58.1909V71.5427C292.93 82.5278 288.68 89.3685 280.07 92.1048L302.54 125.06H276.33L254.61 93.4829ZM244.37 74.4088H263.47C268.71 74.4088 270.47 72.7811 270.47 67.9277V61.816C270.47 56.8228 268.72 55.205 263.47 55.205H244.37V74.4088Z" fill="white"></path><path d="M346 93.4829H335.8V125.01H313.33V36.1309H361.64C376.74 36.1309 384.35 43.6107 384.35 58.1909V71.5427C384.35 82.5278 380.11 89.3685 371.5 92.1048L393.97 125.06H367.75L346 93.4829ZM335.8 74.4088H354.9C360.14 74.4088 361.9 72.7811 361.9 67.9277V61.816C361.9 56.8228 360.16 55.205 354.9 55.205H335.8V74.4088Z" fill="white"></path><path d="M447.49 94.7212V125.02H424.9V94.7212L393.07 36.1409H418.03L436.26 70.2944L454.36 36.1409H479.32L447.49 94.7212Z" fill="white"></path><path d="M648.87 36.6209H626.41V125.48H648.87V36.6209Z" fill="white"></path><path d="M719.46 105.926V125H664.15V36.1409H686.61V105.926H719.46Z" fill="white"></path><path d="M826.21 55.205V70.0348H861.65V89.0989H826.21V105.926H866.89V125H803.75V36.1409H866.89V55.205H826.21Z" fill="white"></path><path d="M912.92 93.4629H902.69V125H880.23V36.1209H928.52C943.62 36.1209 951.23 43.5907 951.23 58.1709V71.5327C951.23 82.5178 946.99 89.3485 938.38 92.0948L960.84 125.05H934.64L912.92 93.4629ZM902.69 74.3988H921.78C927.02 74.3988 928.78 72.781 928.78 67.9177V61.806C928.78 56.8127 927.03 55.2049 921.78 55.2049H902.69V74.3988Z" fill="white"></path><path d="M565.03 85.5537L540.85 36.1409H519.15V124.93H541.59V79.7316L564.97 126.168L588.35 79.8514V124.93H610.8V36.1409H589.1L565.03 85.5537Z" fill="white"></path><path d="M790.04 105.926V125H734.73V36.1409H757.19V105.926H790.04Z" fill="white"></path></svg> 